/* XPM */
static char *text_x_preview[] = {
/* columns rows colors chars-per-pixel */
"48 48 193 2 ",
"   c #747473",
".  c #767675",
"X  c #7E7E7D",
"o  c #7F7E7E",
"O  c #7F7F7E",
"+  c #888887",
"@  c #898989",
"#  c #8D8D8D",
"$  c #939394",
"%  c #989797",
"&  c #989897",
"*  c #999998",
"=  c #999999",
"-  c #9A9A99",
";  c #99999A",
":  c #9B9B9A",
">  c #9C9B9B",
",  c #9C9C9B",
"<  c #9D9D9C",
"1  c #9C9C9D",
"2  c #9C9D9D",
"3  c #9D9D9D",
"4  c #9E9E9D",
"5  c #9F9E9E",
"6  c #9F9F9E",
"7  c #A0A09F",
"8  c #A0A0A0",
"9  c #A1A1A0",
"0  c #A1A1A1",
"q  c #A2A2A1",
"w  c #A3A3A2",
"e  c #A3A3A3",
"r  c #A4A4A3",
"t  c #A5A4A4",
"y  c #A5A5A4",
"u  c #A6A5A5",
"i  c #A5A5A6",
"p  c #A6A6A6",
"a  c #A7A7A6",
"s  c #A7A7A7",
"d  c #A8A7A7",
"f  c #A8A8A7",
"g  c #A9A8A8",
"h  c #A8A8A9",
"j  c #A8A9A9",
"k  c #A9A9A9",
"l  c #AAAAAA",
"z  c #ABABAA",
"x  c #AAABAB",
"c  c #ABABAB",
"v  c #ACACAC",
"b  c #ADADAC",
"n  c #ADADAD",
"m  c #AFAFAF",
"M  c #B0B0B1",
"N  c #B2B2B3",
"B  c #B3B3B3",
"V  c #B4B4B5",
"C  c #B6B6B6",
"Z  c #B8B8B8",
"A  c #BABABB",
"S  c #BBBBBC",
"D  c #BDBDBD",
"F  c #BEBEBF",
"G  c #C2C2C2",
"H  c #C3C3C3",
"J  c #C4C4C4",
"K  c #C6C6C6",
"L  c #C7C7C7",
"P  c #C7C8C8",
"I  c #C9C8C8",
"U  c #C8C9C9",
"Y  c #C9C9C9",
"T  c #CAC9C9",
"R  c #CBCAC9",
"E  c #CACACA",
"W  c #CBCACA",
"Q  c #CBCBCB",
"!  c #CCCBCA",
"~  c #CCCBCB",
"^  c #CDCCCB",
"/  c #CCCCCC",
"(  c #CDCDCD",
")  c #CECDCC",
"_  c #CECDCD",
"`  c #CFCECD",
"'  c #CFCECE",
"]  c #D0CFCE",
"[  c #D0CFCF",
"{  c #D0D0D0",
"}  c #D1D0D0",
"|  c #D1D1D1",
" . c #D2D1D0",
".. c #D2D1D1",
"X. c #D3D2D1",
"o. c #D1D2D2",
"O. c #D2D2D2",
"+. c #D3D2D2",
"@. c #D3D3D3",
"#. c #D4D3D3",
"$. c #D4D4D3",
"%. c #D4D4D4",
"&. c #D5D4D4",
"*. c #D5D4D5",
"=. c #D5D5D5",
"-. c #D6D5D5",
";. c #D6D6D6",
":. c #D7D6D6",
">. c #D8D7D7",
",. c #D8D8D8",
"<. c #D9D8D8",
"1. c #DAD9D8",
"2. c #DAD9D9",
"3. c #DADADA",
"4. c #DBDADA",
"5. c #DCDBDB",
"6. c #DCDCDC",
"7. c #DDDCDC",
"8. c #DDDDDD",
"9. c #DEDDDD",
"0. c #DFDEDD",
"q. c #DDDEDE",
"w. c #DEDEDE",
"e. c #DFDEDE",
"r. c #DFDFDF",
"t. c #E0DFDF",
"y. c #DFDFE0",
"u. c #E0E0E0",
"i. c #E1E0E0",
"p. c #E1E1E1",
"a. c #E2E1E1",
"s. c #E2E2E2",
"d. c #E3E2E2",
"f. c #E2E3E3",
"g. c #E3E3E3",
"h. c #E4E3E3",
"j. c #E4E4E4",
"k. c #E5E4E4",
"l. c #E5E5E5",
"z. c #E6E5E5",
"x. c #E6E6E6",
"c. c #E7E6E6",
"v. c #E7E7E7",
"b. c #E8E7E7",
"n. c #E8E8E7",
"m. c #E8E8E8",
"M. c #E9E8E8",
"N. c #E9E9E9",
"B. c #EAE9E9",
"V. c #E9EAEA",
"C. c #EAEAEA",
"Z. c #EBEAEA",
"A. c #EBEBEB",
"S. c #ECEBEB",
"D. c #ECECEC",
"F. c #EDECEC",
"G. c #EDEDED",
"H. c #EEEDED",
"J. c #EEEEEE",
"K. c #EFEEEE",
"L. c #EFEFEF",
"P. c #F0EFEF",
"I. c #F0F0F0",
"U. c #F1F0F0",
"Y. c #F0F1F1",
"T. c #F1F1F1",
"R. c #F2F1F1",
"E. c #F1F2F2",
"W. c #F2F2F2",
"Q. c #F3F2F2",
"!. c #F2F3F3",
"~. c #F3F3F3",
"^. c #F4F3F3",
"/. c #F3F4F4",
"(. c #F4F4F4",
"). c #F5F4F4",
"_. c #F4F5F5",
"`. c #F5F5F5",
"'. c #F6F5F5",
"]. c #F6F6F6",
"[. c #F6F7F7",
"{. c #F7F7F7",
"}. c #F8F7F7",
"|. c #F8F8F8",
" X c #F9F8F8",
".X c #F9F9F9",
"XX c #FAF9F9",
"oX c #FAFAFA",
"OX c #FBFBFB",
"+X c #FCFBFB",
"@X c #FCFCFC",
"#X c #FEFEFE",
"$X c None",
/* pixels */
"$X$X$X$X$X$X$X$X$X$X$X$X$X$X$X$X$X$X$X$X$X$X$X$X$X$X$X$X$X$X$X$X$X$X$X$X$X$X$X$X$X$X$X$X$X$X$X$X",
"$X$X$X$X$X$X$X$X$X$X$X$X$X$X$X$X$X$X$X$X$X$X$X$X$X$X$X$X$X$X$X$X$X$X$X$X$X$X$X$X$X$X$X$X$X$X$X$X",
"$X$X$X$X$X$X= C./.U.U.U.]./.U./.].U.U.].U./.U./././.U.U.g.J m $X$X$X$X$X$X$X$X$X$X$X$X$X$X$X$X$X",
"$X$X$X$X$X$Xm OX@X@X#XOXOX@X#X@X@X@X@X@X#XOX#XOX@X@X#X@X#XD.j.P $X$X$X$X$X$X$X$X$X$X$X$X$X$X$X$X",
"$X$X$X$X$X$Xm OXOXOXOXOXOXOXOXOXOXOXOXOXOXOXOXOXOXOXOXOXOXU.r.].Q $X$X$X$X$X$X$X$X$X$X$X$X$X$X$X",
"$X$X$X$X$X$Xv ].OXOXOXOXOXOXOXOXOXOXOXOXOXOXOXOXOXOXOXOXOX].=./.].P $X$X$X$X$X$X$X$X$X$X$X$X$X$X",
"$X$X$X$X$X$Xc  XOX X|.G.C.C.C.C.C.C.C.C.C.C.C.C.C.C.C.C.C.m.Q L.].U.K $X$X$X$X$X$X$X$X$X$X$X$X$X",
"$X$X$X$X$X$Xm ]. X X].j.u.u.u.u.y.y.g.r.u.u.u.u.u.u.g.y.y.v.( C./.].U.K $X$X$X$X$X$X$X$X$X$X$X$X",
"$X$X$X$X$X$Xm ].].OX/.g.u.u.u.u.u.u.u.u.u.u.u.u.u.u.u.u.j./.$.x.!.!.E.Y.F $X$X$X$X$X$X$X$X$X$X$X",
"$X$X$X$X$X$Xg ]. X].).j.u.i.u.u.u.u.u.u.u.u.u.i.u.u.u.u.D.U.{ g.U.Y.J.U.G.h $X$X$X$X$X$X$X$X$X$X",
"$X$X$X$X$X$Xg ].].].^.g.r.r.r.r.r.r.r.r.r.r.r.r.u.r.r.r.r.r.J r.Y.J.J.J.J.x.2 $X$X$X$X$X$X$X$X$X",
"$X$X$X$X$X$Xg /.].].U.g.r.r.r.r.r.r.r.r.r.r.r.r.r.r.r.r.r.r.J $.x.x.A.A.G.U.y.# $X$X$X$X$X$X$X$X",
"$X$X$X$X$X$Xg ].].^.).U.].^.^.^.U./.^.^.^.^.^.^.^.^.^.^.U.).r.G D N h i h C o.) $X$X$X$X$X$X$X$X",
"$X$X$X$X$X$Xg U.^.^.^.)./.).^.^.].)./.).).^.)./.).).).).].).).G.l...D h 1 $ 1 C y $X$X$X$X$X$X$X",
"$X$X$X$X$X$Xg U.^.^.U.j.g.g.i.g.i.g.g.i.g.i.i.g.g.i.a.a.i.g.g.r.r.o.K A N M V F H O $X$X$X$X$X$X",
"$X$X$X$X$X$Xf U.U.U.P.i.4.7.5.7.5.7.7.5.7.7.5.7.7.5.7.7.5.5.5.5.3.,.[ K H K Q o.t.9 $X$X$X$X$X$X",
"$X$X$X$X$X$Xd P.P.P.P.t.5.5.5.5.5.5.5.5.5.5.5.5.5.5.5.5.5.5.5.5.4.4.=...o.r.t.x.F.d $X$X$X$X$X$X",
"$X$X$X$X$X$Xd G.P.P.F.t.1.5.1.5.5.5.4.4.5.1.5.>.5.5.>.5.5.5.>.5.5.5.t.g.g.C.G.P.G.d $X$X$X$X$X$X",
"$X$X$X$X$X$Xy F.P.F.F.t.t.t.t.5.t.t.r.7.t.t.t.t.t.t.t.t.5.t.t.t.r.t.F.P.G.G.G.G.G.y $X$X$X$X$X$X",
"$X$X$X$X$X$Xt F.F.F.F.F.F.F.P.P.F.H.H.H.F.F.F.P.F.F.F.F.P.P.F.F.P.G.F.F.F.F.F.F.F.y $X$X$X$X$X$X",
"$X$X$X$X$X$Xy C.F.F.C.h.a.z.z.a.a.j.a.z.a.b.a.z.a.a.b.a.a.a.b.a.h.F.F.F.F.F.F.F.F.r $X$X$X$X$X$X",
"$X$X$X$X$X$Xy B.B.B.b.5.-.>.>.>.>.>.-.>.>.>.-.>.>.>.>.&.>.>.>.>.>.a.x.a.h.B.b.B.B.t $X$X$X$X$X$X",
"$X$X$X$X$X$Xr b.b.B.b.,.>.-.>.>.>.>.-.>.>.>.>.>.>.>.>.>.&.>.>.>.>.=.*.>.5.b.b.B.b.y $X$X$X$X$X$X",
"$X$X$X$X$X$Xr b.b.b.z.,.-.-.*.-.$.>.&.-.&.&.&.&.&.>.&.>.&.>.&.&.=.=.>.t.b.b.b.b.x.9 $X$X$X$X$X$X",
"$X$X$X$X$X$Xr x.b.b.a.,.-.*.-.-.&.&.*.=.*.*.*.*.&.&.>.&.&.>.&.>.a.b.x.b.x.b.b.b.x.r $X$X$X$X$X$X",
"$X$X$X$X$X$Xr a.h.b.h.h.h.a.h.a.a.x.a.h.a.h.h.h.a.a.a.a.a.a.a.a.h.x.h.b.b.a.h.b.h.9 $X$X$X$X$X$X",
"$X$X$X$X$X$X9 a.h.h.h.a.h.a.a.a.a.b.a.h.h.h.h.h.x.a.a.a.a.a.b.a.a.h.h.a.a.h.h.h.h.9 $X$X$X$X$X$X",
"$X$X$X$X$X$X9 a.h.a.t.*.&.&.&.&.&.&.....&.&.o.o.&.&.&.&.&.[ &.&.&...&.>.a.a.a.h.a.9 $X$X$X$X$X$X",
"$X$X$X$X$X$X9 g.t.t.t.&...} } } ] ......} } ......} } } &...............$.t.a.t.g.8 $X$X$X$X$X$X",
"$X$X$X$X$X$X5 t.t.t.t.*.} } } } ] ] } } } } } } } } } } ] ] } } ] ] } =.7.t.t.t.t.5 $X$X$X$X$X$X",
"$X$X$X$X$X$X5 t.8.t.8.o.} [ } } ] } } ( } } [ [ [ [ } } ] } ..,.>.>.5.5.t.t.r.7.t.5 $X$X$X$X$X$X",
"$X$X$X$X$X$X5 5.8.8.8.} ( [ ( ] ( } ( ] ( [ ( [ ( [ ] ( ] ( } =.>.>.>.$.>.5.r.7.7.5 $X$X$X$X$X$X",
"$X$X$X$X$X$X5 5.5.5.4.( ( ( ( ] ) ) ) ) ) ) ) ) ) ) ) _ ] ) ) ) ) _ _ _ &.,.5.5.5.5 $X$X$X$X$X$X",
"$X$X$X$X$X$X4 5.4.4.4...] } ] ] ] ] } } } } } } [ [ [ [ [ } [ [ [ [ } *.5.5.5.1.5.< $X$X$X$X$X$X",
"$X$X$X$X$X$X< 1.>.>.4.4.,.>.,.5.>.>.5.,.,.,.,.,.2.2.2.2.,.1.1.1.2.2.2.2.1.1.>.>.>.4 $X$X$X$X$X$X",
"$X$X$X$X$X$X: >.>.>.>.&.&.&.&.&.&.&.&.&.*.+.*.*.*.+.*.+.*.+.*.*.*.+.*.+.&.>.>.>.>.: $X$X$X$X$X$X",
"$X$X$X$X$X$X: >.>.>.>.W I W I W T T T T T T T T I T T T T T T T I T I W ] *.-.>.>.: $X$X$X$X$X$X",
"$X$X$X$X$X$X: =.&.*.&.W I I W I T T T T T T T T T T T T T T T T W T W ] -.*.&.&.>.: $X$X$X$X$X$X",
"$X$X$X$X$X$X= $.&.&.&.I I I I I I I I I I I I I I I I I I I I T ..*.*.*.*.&.&.&.&.& $X$X$X$X$X$X",
"$X$X$X$X$X$X= &. .] } &.} } &.} ............] &.................+.+.} ..&.] [ &.&.= $X$X$X$X$X$X",
"$X$X$X$X$X$X&  .] } } } } } } } ] ] ..} } } } } } } } ] ..] ..] } } } ] ..] ..]  .& $X$X$X$X$X$X",
"$X$X$X$X$X$X& ] ] ] ] ] ] ] ] ] ] ] ] ] ] ] ] ] ] ] ] ] ] ] ] ] ] ] ] ] ] ] ] ] ] % $X$X$X$X$X$X",
"$X$X$X$X$X$X& ] ] ] ] ] ) ] ] ) ] ) ( ( ] ] ] ] ] ) ] ) ] ) ) ( ] ) ] ) ] ) ) ( ] % $X$X$X$X$X$X",
"$X$X$X$X$X$X% ) W W W W ) W ) W W ] W ) W W W W W ) ( W ) W ) W W ) ( W ) W ) W ) % $X$X$X$X$X$X",
"$X$X$X$X$X$X+ W ) ) ) ( ) ) ) ) ( ) ) ) ) ) ] ( ) ) ) ) ( ] ) ) ) ) ) ) ( ] ) ) W @ $X$X$X$X$X$X",
"$X$X$X$X$X$X$X  O X X X X X X X X X X X X X X X X X X X X X X X X X X X X X X O . $X$X$X$X$X$X$X",
"$X$X$X$X$X$X$X$X$X$X$X$X$X$X$X$X$X$X$X$X$X$X$X$X$X$X$X$X$X$X$X$X$X$X$X$X$X$X$X$X$X$X$X$X$X$X$X$X",
"$X$X$X$X$X$X$X$X$X$X$X$X$X$X$X$X$X$X$X$X$X$X$X$X$X$X$X$X$X$X$X$X$X$X$X$X$X$X$X$X$X$X$X$X$X$X$X$X"
};
